<?xml version="1.0" encoding="UTF-8" standalone="no"?>
<!DOCTYPE svg PUBLIC "-//W3C//DTD SVG 1.1//EN"
 "http://www.w3.org/Graphics/SVG/1.1/DTD/svg11.dtd">
<!-- Generated by graphviz version 2.36.0 (20140111.2315)
 -->
<!-- Title: G Pages: 1 -->
<svg width="420pt" height="308pt"
 viewBox="0.00 0.00 420.00 308.00" xmlns="http://www.w3.org/2000/svg" xmlns:xlink="http://www.w3.org/1999/xlink">
<g id="graph0" class="graph" transform="scale(1 1) rotate(0) translate(4 304)">
<title>G</title>
<polygon fill="white" stroke="none" points="-4,4 -4,-304 416,-304 416,4 -4,4"/>
<!-- node0 -->
<g id="node1" class="node"><title>node0</title>
<polygon fill="none" stroke="black" points="162,-0.5 162,-299.5 278,-299.5 278,-0.5 162,-0.5"/>
<text text-anchor="middle" x="220" y="-284.3" font-family="Times New Roman,serif" font-size="14.00"> </text>
<polyline fill="none" stroke="black" points="162,-276.5 278,-276.5 "/>
<text text-anchor="middle" x="220" y="-261.3" font-family="Times New Roman,serif" font-size="14.00"> </text>
<polyline fill="none" stroke="black" points="162,-253.5 278,-253.5 "/>
<text text-anchor="middle" x="220" y="-238.3" font-family="Times New Roman,serif" font-size="14.00">var: string=NULL</text>
<polyline fill="none" stroke="black" points="162,-230.5 278,-230.5 "/>
<text text-anchor="middle" x="220" y="-215.3" font-family="Times New Roman,serif" font-size="14.00">返回地址</text>
<polyline fill="none" stroke="black" points="162,-207.5 278,-207.5 "/>
<text text-anchor="middle" x="220" y="-192.3" font-family="Times New Roman,serif" font-size="14.00">old ebp</text>
<polyline fill="none" stroke="black" points="162,-184.5 278,-184.5 "/>
<text text-anchor="middle" x="220" y="-169.3" font-family="Times New Roman,serif" font-size="14.00">h</text>
<polyline fill="none" stroke="black" points="162,-161.5 278,-161.5 "/>
<text text-anchor="middle" x="220" y="-146.3" font-family="Times New Roman,serif" font-size="14.00">e</text>
<polyline fill="none" stroke="black" points="162,-138.5 278,-138.5 "/>
<text text-anchor="middle" x="220" y="-123.3" font-family="Times New Roman,serif" font-size="14.00">l</text>
<polyline fill="none" stroke="black" points="162,-115.5 278,-115.5 "/>
<text text-anchor="middle" x="220" y="-100.3" font-family="Times New Roman,serif" font-size="14.00">l</text>
<polyline fill="none" stroke="black" points="162,-92.5 278,-92.5 "/>
<text text-anchor="middle" x="220" y="-77.3" font-family="Times New Roman,serif" font-size="14.00">...</text>
<polyline fill="none" stroke="black" points="162,-69.5 278,-69.5 "/>
<text text-anchor="middle" x="220" y="-54.3" font-family="Times New Roman,serif" font-size="14.00">d</text>
<polyline fill="none" stroke="black" points="162,-46.5 278,-46.5 "/>
<text text-anchor="middle" x="220" y="-31.3" font-family="Times New Roman,serif" font-size="14.00">\0</text>
<polyline fill="none" stroke="black" points="162,-23.5 278,-23.5 "/>
<text text-anchor="middle" x="220" y="-8.3" font-family="Times New Roman,serif" font-size="14.00"> </text>
</g>
<!-- node0&#45;&gt;node0 -->
<g id="edge8" class="edge"><title>node0:f3:e&#45;&gt;node0:fb:e</title>
<path fill="none" stroke="black" d="M278,-196C301.667,-187 349,-187 349,-242 349,-290.125 312.76,-296.141 287.846,-290.863"/>
<polygon fill="black" stroke="black" points="288.58,-287.432 278,-288 286.625,-294.153 288.58,-287.432"/>
</g>
<!-- eax -->
<g id="node6" class="node"><title>eax</title>
<text text-anchor="middle" x="363" y="-154.3" font-family="Times New Roman,serif" font-size="14.00">eax</text>
</g>
<!-- node0&#45;&gt;eax -->
<g id="edge1" class="edge"><title>node0:f4:ne&#45;&gt;eax</title>
<path fill="none" stroke="black" d="M288.073,-185.134C299.776,-182.777 319.097,-175.622 335.052,-169.252"/>
<polygon fill="black" stroke="black" points="288.046,-181.633 278,-185 287.953,-188.633 288.046,-181.633"/>
</g>
<!-- addr1 -->
<g id="node7" class="node"><title>addr1</title>
<text text-anchor="middle" x="363" y="-250.3" font-family="Times New Roman,serif" font-size="14.00">0xCFFFFFFB</text>
</g>
<!-- node0&#45;&gt;addr1 -->
<g id="edge9" class="edge"><title>node0:f1:ne&#45;&gt;addr1</title>
<path fill="none" stroke="black" d="M286.18,-260.101C296.259,-265.606 308.683,-266.458 320.537,-265.258"/>
<polygon fill="black" stroke="black" points="288.109,-257.173 278,-254 283.923,-262.784 288.109,-257.173"/>
</g>
<!-- addr2 -->
<g id="node8" class="node"><title>addr2</title>
<text text-anchor="middle" x="363" y="-195.3" font-family="Times New Roman,serif" font-size="14.00">0xCFFFFFF0</text>
</g>
<!-- node0&#45;&gt;addr2 -->
<g id="edge10" class="edge"><title>node0:f3:se&#45;&gt;addr2</title>
<path fill="none" stroke="black" d="M287.562,-181.49C297.898,-180.52 313.481,-183.767 327.723,-187.72"/>
<polygon fill="black" stroke="black" points="286.181,-178.268 278,-185 288.594,-184.839 286.181,-178.268"/>
</g>
<!-- stack_main -->
<g id="node2" class="node"><title>stack_main</title>
<text text-anchor="middle" x="63" y="-253.3" font-family="Times New Roman,serif" font-size="14.00">main函数栈</text>
</g>
<!-- stack_main&#45;&gt;node0 -->
<g id="edge2" class="edge"><title>stack_main&#45;&gt;node0:fb</title>
<path fill="none" stroke="black" d="M86.336,-268.367C103.367,-276.109 127.894,-285.334 151.811,-287.519"/>
<polygon fill="black" stroke="black" points="151.846,-291.025 162,-288 152.176,-284.033 151.846,-291.025"/>
</g>
<!-- stack_main&#45;&gt;node0 -->
<g id="edge3" class="edge"><title>stack_main&#45;&gt;node0:f9</title>
<path fill="none" stroke="black" d="M83.5305,-245.616C97.524,-236.43 115.658,-222.223 126,-205 163.818,-142.022 92.3902,-45.0461 151.786,-35.7259"/>
<polygon fill="black" stroke="black" points="152.273,-39.2002 162,-35 151.777,-32.2178 152.273,-39.2002"/>
</g>
<!-- stack_f1 -->
<g id="node3" class="node"><title>stack_f1</title>
<text text-anchor="middle" x="63" y="-100.3" font-family="Times New Roman,serif" font-size="14.00">get_memory函数栈</text>
</g>
<!-- stack_f1&#45;&gt;node0 -->
<g id="edge4" class="edge"><title>stack_f1&#45;&gt;node0:f4</title>
<path fill="none" stroke="black" d="M72.2993,-115.394C86.3145,-133.308 116.622,-166.603 151.921,-172.194"/>
<polygon fill="black" stroke="black" points="151.753,-175.691 162,-173 152.311,-168.714 151.753,-175.691"/>
</g>
<!-- stack_f1&#45;&gt;node0 -->
<g id="edge5" class="edge"><title>stack_f1&#45;&gt;node0:f9</title>
<path fill="none" stroke="black" d="M72.2993,-92.6061C86.3145,-74.6923 116.622,-41.3967 151.921,-35.8063"/>
<polygon fill="black" stroke="black" points="152.311,-39.2864 162,-35 151.753,-32.3087 152.311,-39.2864"/>
</g>
<!-- ebp -->
<g id="node4" class="node"><title>ebp</title>
<text text-anchor="middle" x="63" y="-181.3" font-family="Times New Roman,serif" font-size="14.00">ebp</text>
</g>
<!-- ebp&#45;&gt;node0 -->
<g id="edge7" class="edge"><title>ebp&#45;&gt;node0:f4:nw</title>
<path fill="none" stroke="black" d="M92.1022,-194.507C111.112,-199.248 135.92,-201.969 153.822,-191.34"/>
<polygon fill="black" stroke="black" points="156.241,-193.893 162,-185 151.952,-188.361 156.241,-193.893"/>
</g>
<!-- esp -->
<g id="node5" class="node"><title>esp</title>
<text text-anchor="middle" x="63" y="-19.3" font-family="Times New Roman,serif" font-size="14.00">esp</text>
</g>
<!-- esp&#45;&gt;node0 -->
<g id="edge6" class="edge"><title>esp&#45;&gt;node0:f9:sw</title>
<path fill="none" stroke="black" d="M92.1022,-13.4931C111.112,-8.75248 135.92,-6.03119 153.822,-16.6601"/>
<polygon fill="black" stroke="black" points="151.952,-19.6391 162,-23 156.241,-14.1069 151.952,-19.6391"/>
</g>
</g>
</svg>
