<?xml version="1.0" encoding="UTF-8" standalone="no"?>
<!DOCTYPE svg PUBLIC "-//W3C//DTD SVG 1.1//EN"
 "http://www.w3.org/Graphics/SVG/1.1/DTD/svg11.dtd">
<!-- Generated by graphviz version 2.36.0 (20140111.2315)
 -->
<!-- Title: G Pages: 1 -->
<svg width="384pt" height="239pt"
 viewBox="0.00 0.00 384.00 239.00" xmlns="http://www.w3.org/2000/svg" xmlns:xlink="http://www.w3.org/1999/xlink">
<g id="graph0" class="graph" transform="scale(1 1) rotate(0) translate(4 235)">
<title>G</title>
<polygon fill="white" stroke="none" points="-4,4 -4,-235 380,-235 380,4 -4,4"/>
<!-- node0 -->
<g id="node1" class="node"><title>node0</title>
<polygon fill="none" stroke="black" points="120.5,-1 120.5,-231 239.5,-231 239.5,-1 120.5,-1"/>
<text text-anchor="middle" x="180" y="-215.8" font-family="Times New Roman,serif" font-size="14.00"> </text>
<polyline fill="none" stroke="black" points="120.5,-208 239.5,-208 "/>
<text text-anchor="middle" x="180" y="-192.8" font-family="Times New Roman,serif" font-size="14.00"> </text>
<polyline fill="none" stroke="black" points="120.5,-185 239.5,-185 "/>
<text text-anchor="middle" x="180" y="-169.8" font-family="Times New Roman,serif" font-size="14.00">var: string</text>
<polyline fill="none" stroke="black" points="120.5,-162 239.5,-162 "/>
<text text-anchor="middle" x="180" y="-146.8" font-family="Times New Roman,serif" font-size="14.00">arg2=*(string)=&#39;h&#39;</text>
<polyline fill="none" stroke="black" points="120.5,-139 239.5,-139 "/>
<text text-anchor="middle" x="180" y="-123.8" font-family="Times New Roman,serif" font-size="14.00">arg1=&quot;%s&quot;</text>
<polyline fill="none" stroke="black" points="120.5,-116 239.5,-116 "/>
<text text-anchor="middle" x="180" y="-100.8" font-family="Times New Roman,serif" font-size="14.00">返回地址</text>
<polyline fill="none" stroke="black" points="120.5,-93 239.5,-93 "/>
<text text-anchor="middle" x="180" y="-77.8" font-family="Times New Roman,serif" font-size="14.00">prinf函数局部变量</text>
<polyline fill="none" stroke="black" points="120.5,-70 239.5,-70 "/>
<text text-anchor="middle" x="180" y="-54.8" font-family="Times New Roman,serif" font-size="14.00">...</text>
<polyline fill="none" stroke="black" points="120.5,-47 239.5,-47 "/>
<text text-anchor="middle" x="180" y="-31.8" font-family="Times New Roman,serif" font-size="14.00">prinf函数局部变量</text>
<polyline fill="none" stroke="black" points="120.5,-24 239.5,-24 "/>
<text text-anchor="middle" x="180" y="-8.8" font-family="Times New Roman,serif" font-size="14.00"> </text>
</g>
<!-- node0&#45;&gt;node0 -->
<g id="edge9" class="edge"><title>node0:f1:e&#45;&gt;node0:f2:e</title>
<path fill="none" stroke="black" d="M240,-174C252.5,-183 278.5,-183 278.5,-139 278.5,-104.281 262.312,-96.9578 249.341,-99.8345"/>
<polygon fill="black" stroke="black" points="247.708,-96.7308 240,-104 250.559,-103.124 247.708,-96.7308"/>
<text text-anchor="middle" x="318.5" y="-112.3" font-family="Times New Roman,serif" font-size="14.00">0xCFFFFFF0</text>
</g>
<!-- stack_fp -->
<g id="node3" class="node"><title>stack_fp</title>
<text text-anchor="middle" x="327" y="-41.3" font-family="Times New Roman,serif" font-size="14.00">printf函数栈</text>
</g>
<!-- node0&#45;&gt;stack_fp -->
<g id="edge5" class="edge"><title>node0:f4&#45;&gt;stack_fp</title>
<path fill="none" stroke="black" d="M250.317,-35.2182C261.696,-35.6785 273.41,-36.8182 284.121,-38.1641"/>
<polygon fill="black" stroke="black" points="250.072,-31.7123 240,-35 249.924,-38.7107 250.072,-31.7123"/>
</g>
<!-- node0&#45;&gt;stack_fp -->
<g id="edge6" class="edge"><title>node0:f3&#45;&gt;stack_fp</title>
<path fill="none" stroke="black" d="M250.266,-79.2879C265.337,-75.2238 287.724,-64.7128 304.252,-56.3906"/>
<polygon fill="black" stroke="black" points="249.288,-75.9026 240,-81 250.44,-82.8072 249.288,-75.9026"/>
</g>
<!-- addr1 -->
<g id="node6" class="node"><title>addr1</title>
<text text-anchor="middle" x="327" y="-181.3" font-family="Times New Roman,serif" font-size="14.00">0xCFFFFFFB</text>
</g>
<!-- node0&#45;&gt;addr1 -->
<g id="edge7" class="edge"><title>node0:f1:ne&#45;&gt;addr1</title>
<path fill="none" stroke="black" d="M248.148,-191.121C259.134,-197.217 272.886,-197.854 285.763,-196.279"/>
<polygon fill="black" stroke="black" points="250.097,-188.208 240,-185 245.893,-193.805 250.097,-188.208"/>
</g>
<!-- addr2 -->
<g id="node7" class="node"><title>addr2</title>
<text text-anchor="middle" x="327" y="-89.3" font-family="Times New Roman,serif" font-size="14.00">0xCFFFFFEF</text>
</g>
<!-- node0&#45;&gt;addr2 -->
<g id="edge8" class="edge"><title>node0:f2:se&#45;&gt;addr2</title>
<path fill="none" stroke="black" d="M248.148,-86.8787C259.134,-80.7827 272.886,-80.1459 285.763,-81.7212"/>
<polygon fill="black" stroke="black" points="245.893,-84.1952 240,-93 250.097,-89.7917 245.893,-84.1952"/>
</g>
<!-- stack_main -->
<g id="node2" class="node"><title>stack_main</title>
<text text-anchor="middle" x="41" y="-166.3" font-family="Times New Roman,serif" font-size="14.00">main函数栈</text>
</g>
<!-- stack_main&#45;&gt;node0 -->
<g id="edge3" class="edge"><title>stack_main&#45;&gt;node0:fb</title>
<path fill="none" stroke="black" d="M51.797,-181.597C63.7873,-194.579 85.5175,-214.406 109.825,-219.018"/>
<polygon fill="black" stroke="black" points="109.71,-222.523 120,-220 110.382,-215.556 109.71,-222.523"/>
</g>
<!-- stack_main&#45;&gt;node0 -->
<g id="edge4" class="edge"><title>stack_main&#45;&gt;node0:f4</title>
<path fill="none" stroke="black" d="M59.7215,-158.644C73.3732,-148.956 91.6154,-133.792 102,-116 118.484,-87.7581 90.8913,-45.9136 110.14,-36.7956"/>
<polygon fill="black" stroke="black" points="110.789,-40.235 120,-35 109.535,-33.3483 110.789,-40.235"/>
</g>
<!-- ebp -->
<g id="node4" class="node"><title>ebp</title>
<text text-anchor="middle" x="41" y="-89.3" font-family="Times New Roman,serif" font-size="14.00">ebp</text>
</g>
<!-- ebp&#45;&gt;node0 -->
<g id="edge2" class="edge"><title>ebp&#45;&gt;node0:f3:nw</title>
<path fill="none" stroke="black" d="M70.276,-101.896C83.7478,-104.591 99.5514,-105.373 111.797,-98.9894"/>
<polygon fill="black" stroke="black" points="113.987,-101.724 120,-93 109.86,-96.07 113.987,-101.724"/>
</g>
<!-- esp -->
<g id="node5" class="node"><title>esp</title>
<text text-anchor="middle" x="41" y="-20.3" font-family="Times New Roman,serif" font-size="14.00">esp</text>
</g>
<!-- esp&#45;&gt;node0 -->
<g id="edge1" class="edge"><title>esp&#45;&gt;node0:f4:sw</title>
<path fill="none" stroke="black" d="M70.276,-15.1036C83.7478,-12.4094 99.5514,-11.6274 111.797,-18.0106"/>
<polygon fill="black" stroke="black" points="109.86,-20.93 120,-24 113.987,-15.2765 109.86,-20.93"/>
</g>
</g>
</svg>
