<?xml version="1.0" encoding="UTF-8" standalone="no"?>
<!DOCTYPE svg PUBLIC "-//W3C//DTD SVG 1.1//EN"
 "http://www.w3.org/Graphics/SVG/1.1/DTD/svg11.dtd">
<!-- Generated by graphviz version 2.36.0 (20140111.2315)
 -->
<!-- Title: G Pages: 1 -->
<svg width="376pt" height="319pt"
 viewBox="0.00 0.00 376.00 319.00" xmlns="http://www.w3.org/2000/svg" xmlns:xlink="http://www.w3.org/1999/xlink">
<g id="graph0" class="graph" transform="scale(1 1) rotate(0) translate(4 315)">
<title>G</title>
<polygon fill="white" stroke="none" points="-4,4 -4,-315 372,-315 372,4 -4,4"/>
<!-- node0 -->
<g id="node1" class="node"><title>node0</title>
<polygon fill="none" stroke="black" points="118,-0.5 118,-299.5 234,-299.5 234,-0.5 118,-0.5"/>
<text text-anchor="middle" x="176" y="-284.3" font-family="Times New Roman,serif" font-size="14.00"> </text>
<polyline fill="none" stroke="black" points="118,-276.5 234,-276.5 "/>
<text text-anchor="middle" x="176" y="-261.3" font-family="Times New Roman,serif" font-size="14.00"> </text>
<polyline fill="none" stroke="black" points="118,-253.5 234,-253.5 "/>
<text text-anchor="middle" x="176" y="-238.3" font-family="Times New Roman,serif" font-size="14.00">var: string</text>
<polyline fill="none" stroke="black" points="118,-230.5 234,-230.5 "/>
<text text-anchor="middle" x="176" y="-215.3" font-family="Times New Roman,serif" font-size="14.00">arg2=*(string)=&#39;h&#39;</text>
<polyline fill="none" stroke="black" points="118,-207.5 234,-207.5 "/>
<text text-anchor="middle" x="176" y="-192.3" font-family="Times New Roman,serif" font-size="14.00">old ebp</text>
<polyline fill="none" stroke="black" points="118,-184.5 234,-184.5 "/>
<text text-anchor="middle" x="176" y="-169.3" font-family="Times New Roman,serif" font-size="14.00">h</text>
<polyline fill="none" stroke="black" points="118,-161.5 234,-161.5 "/>
<text text-anchor="middle" x="176" y="-146.3" font-family="Times New Roman,serif" font-size="14.00">e</text>
<polyline fill="none" stroke="black" points="118,-138.5 234,-138.5 "/>
<text text-anchor="middle" x="176" y="-123.3" font-family="Times New Roman,serif" font-size="14.00">l</text>
<polyline fill="none" stroke="black" points="118,-115.5 234,-115.5 "/>
<text text-anchor="middle" x="176" y="-100.3" font-family="Times New Roman,serif" font-size="14.00">l</text>
<polyline fill="none" stroke="black" points="118,-92.5 234,-92.5 "/>
<text text-anchor="middle" x="176" y="-77.3" font-family="Times New Roman,serif" font-size="14.00">...</text>
<polyline fill="none" stroke="black" points="118,-69.5 234,-69.5 "/>
<text text-anchor="middle" x="176" y="-54.3" font-family="Times New Roman,serif" font-size="14.00">d</text>
<polyline fill="none" stroke="black" points="118,-46.5 234,-46.5 "/>
<text text-anchor="middle" x="176" y="-31.3" font-family="Times New Roman,serif" font-size="14.00">\0</text>
<polyline fill="none" stroke="black" points="118,-23.5 234,-23.5 "/>
<text text-anchor="middle" x="176" y="-8.3" font-family="Times New Roman,serif" font-size="14.00"> </text>
</g>
<!-- node0&#45;&gt;node0 -->
<g id="edge1" class="edge"><title>node0:f1:e&#45;&gt;node0:f4:ne</title>
<path fill="none" stroke="black" d="M234,-242C256.333,-251 301,-251 301,-213.5 301,-180.834 267.107,-176.623 243.607,-182.029"/>
<polygon fill="black" stroke="black" points="242.52,-178.702 234,-185 244.588,-185.389 242.52,-178.702"/>
</g>
<!-- addr1 -->
<g id="node5" class="node"><title>addr1</title>
<text text-anchor="middle" x="319" y="-250.3" font-family="Times New Roman,serif" font-size="14.00">0xCFFFFFFB</text>
</g>
<!-- node0&#45;&gt;addr1 -->
<g id="edge6" class="edge"><title>node0:f1:ne&#45;&gt;addr1</title>
<path fill="none" stroke="black" d="M242.18,-260.101C252.259,-265.606 264.683,-266.458 276.537,-265.258"/>
<polygon fill="black" stroke="black" points="244.109,-257.173 234,-254 239.923,-262.784 244.109,-257.173"/>
</g>
<!-- addr2 -->
<g id="node6" class="node"><title>addr2</title>
<text text-anchor="middle" x="319" y="-181.3" font-family="Times New Roman,serif" font-size="14.00">0xCFFFFFF0</text>
</g>
<!-- node0&#45;&gt;addr2 -->
<g id="edge7" class="edge"><title>node0:f3:se&#45;&gt;addr2</title>
<path fill="none" stroke="black" d="M242.18,-178.899C252.259,-173.394 264.683,-172.542 276.537,-173.742"/>
<polygon fill="black" stroke="black" points="239.923,-176.216 234,-185 244.109,-181.827 239.923,-176.216"/>
</g>
<!-- stack_main -->
<g id="node2" class="node"><title>stack_main</title>
<text text-anchor="middle" x="41" y="-250.3" font-family="Times New Roman,serif" font-size="14.00">main函数栈</text>
</g>
<!-- stack_main&#45;&gt;node0 -->
<g id="edge2" class="edge"><title>stack_main&#45;&gt;node0:fb</title>
<path fill="none" stroke="black" d="M57.1252,-265.322C69.6755,-273.744 88.5384,-284.267 107.876,-287.206"/>
<polygon fill="black" stroke="black" points="107.757,-290.707 118,-288 108.304,-283.729 107.757,-290.707"/>
</g>
<!-- stack_main&#45;&gt;node0 -->
<g id="edge3" class="edge"><title>stack_main&#45;&gt;node0:f1_1</title>
<path fill="none" stroke="black" d="M61.4912,-242.733C75.7531,-234.82 94.8491,-224.95 108.113,-220.884"/>
<polygon fill="black" stroke="black" points="108.832,-224.31 118,-219 107.522,-217.434 108.832,-224.31"/>
</g>
<!-- ebp -->
<g id="node3" class="node"><title>ebp</title>
<text text-anchor="middle" x="41" y="-296.3" font-family="Times New Roman,serif" font-size="14.00">ebp</text>
</g>
<!-- ebp&#45;&gt;node0 -->
<g id="edge5" class="edge"><title>ebp&#45;&gt;node0:fb:nw</title>
<path fill="none" stroke="black" d="M70.2949,-308.815C83.1783,-311.305 98.12,-311.931 109.796,-305.945"/>
<polygon fill="black" stroke="black" points="111.956,-308.702 118,-300 107.849,-303.034 111.956,-308.702"/>
</g>
<!-- esp -->
<g id="node4" class="node"><title>esp</title>
<text text-anchor="middle" x="41" y="-204.3" font-family="Times New Roman,serif" font-size="14.00">esp</text>
</g>
<!-- esp&#45;&gt;node0 -->
<g id="edge4" class="edge"><title>esp&#45;&gt;node0:f1_1:sw</title>
<path fill="none" stroke="black" d="M70.2949,-199.185C83.1783,-196.695 98.12,-196.069 109.796,-202.055"/>
<polygon fill="black" stroke="black" points="107.849,-204.966 118,-208 111.956,-199.298 107.849,-204.966"/>
</g>
</g>
</svg>
