<?xml version="1.0" encoding="UTF-8" standalone="no"?>
<!DOCTYPE svg PUBLIC "-//W3C//DTD SVG 1.1//EN"
 "http://www.w3.org/Graphics/SVG/1.1/DTD/svg11.dtd">
<!-- Generated by graphviz version 2.36.0 (20140111.2315)
 -->
<!-- Title: G Pages: 1 -->
<svg width="376pt" height="233pt"
 viewBox="0.00 0.00 376.00 233.00" xmlns="http://www.w3.org/2000/svg" xmlns:xlink="http://www.w3.org/1999/xlink">
<g id="graph0" class="graph" transform="scale(1 1) rotate(0) translate(4 229)">
<title>G</title>
<polygon fill="white" stroke="none" points="-4,4 -4,-229 372,-229 372,4 -4,4"/>
<!-- node0 -->
<g id="node1" class="node"><title>node0</title>
<polygon fill="none" stroke="black" points="118,-0.5 118,-207.5 234,-207.5 234,-0.5 118,-0.5"/>
<text text-anchor="middle" x="176" y="-192.3" font-family="Times New Roman,serif" font-size="14.00"> </text>
<polyline fill="none" stroke="black" points="118,-184.5 234,-184.5 "/>
<text text-anchor="middle" x="176" y="-169.3" font-family="Times New Roman,serif" font-size="14.00"> </text>
<polyline fill="none" stroke="black" points="118,-161.5 234,-161.5 "/>
<text text-anchor="middle" x="176" y="-146.3" font-family="Times New Roman,serif" font-size="14.00">var: string=NULL</text>
<polyline fill="none" stroke="black" points="118,-138.5 234,-138.5 "/>
<text text-anchor="middle" x="176" y="-123.3" font-family="Times New Roman,serif" font-size="14.00"> </text>
<polyline fill="none" stroke="black" points="118,-115.5 234,-115.5 "/>
<text text-anchor="middle" x="176" y="-100.3" font-family="Times New Roman,serif" font-size="14.00"> </text>
<polyline fill="none" stroke="black" points="118,-92.5 234,-92.5 "/>
<text text-anchor="middle" x="176" y="-77.3" font-family="Times New Roman,serif" font-size="14.00"> </text>
<polyline fill="none" stroke="black" points="118,-69.5 234,-69.5 "/>
<text text-anchor="middle" x="176" y="-54.3" font-family="Times New Roman,serif" font-size="14.00"> </text>
<polyline fill="none" stroke="black" points="118,-46.5 234,-46.5 "/>
<text text-anchor="middle" x="176" y="-31.3" font-family="Times New Roman,serif" font-size="14.00"> </text>
<polyline fill="none" stroke="black" points="118,-23.5 234,-23.5 "/>
<text text-anchor="middle" x="176" y="-8.3" font-family="Times New Roman,serif" font-size="14.00"> </text>
</g>
<!-- addr1 -->
<g id="node5" class="node"><title>addr1</title>
<text text-anchor="middle" x="319" y="-167.3" font-family="Times New Roman,serif" font-size="14.00">0xCFFFFFFB</text>
</g>
<!-- node0&#45;&gt;addr1 -->
<g id="edge5" class="edge"><title>node0:f1:ne&#45;&gt;addr1</title>
<path fill="none" stroke="black" d="M241.915,-168.178C250.115,-173.152 259.873,-175.504 269.62,-176.329"/>
<polygon fill="black" stroke="black" points="244.036,-165.394 234,-162 239.729,-170.912 244.036,-165.394"/>
</g>
<!-- addr2 -->
<g id="node6" class="node"><title>addr2</title>
<text text-anchor="middle" x="319" y="-126.3" font-family="Times New Roman,serif" font-size="14.00">0xCFFFFFF8</text>
</g>
<!-- node0&#45;&gt;addr2 -->
<g id="edge6" class="edge"><title>node0:f1:se&#45;&gt;addr2</title>
<path fill="none" stroke="black" d="M241.932,-132.811C250.497,-127.621 260.759,-125.29 270.933,-124.569"/>
<polygon fill="black" stroke="black" points="239.731,-130.089 234,-139 244.037,-135.608 239.731,-130.089"/>
</g>
<!-- stack_bottom -->
<g id="node2" class="node"><title>stack_bottom</title>
<text text-anchor="middle" x="41" y="-169.3" font-family="Times New Roman,serif" font-size="14.00">main函数栈</text>
</g>
<!-- stack_bottom&#45;&gt;node0 -->
<g id="edge1" class="edge"><title>stack_bottom&#45;&gt;node0:fb</title>
<path fill="none" stroke="black" d="M66.4249,-184.365C78.314,-189.073 93.1913,-193.812 107.891,-195.423"/>
<polygon fill="black" stroke="black" points="107.817,-198.924 118,-196 108.216,-191.936 107.817,-198.924"/>
</g>
<!-- stack_bottom&#45;&gt;node0 -->
<g id="edge2" class="edge"><title>stack_bottom&#45;&gt;node0:f1</title>
<path fill="none" stroke="black" d="M66.4249,-161.635C78.314,-156.927 93.1913,-152.188 107.891,-150.577"/>
<polygon fill="black" stroke="black" points="108.216,-154.064 118,-150 107.817,-147.076 108.216,-154.064"/>
</g>
<!-- ebp -->
<g id="node3" class="node"><title>ebp</title>
<text text-anchor="middle" x="41" y="-210.3" font-family="Times New Roman,serif" font-size="14.00">ebp</text>
</g>
<!-- ebp&#45;&gt;node0 -->
<g id="edge3" class="edge"><title>ebp&#45;&gt;node0:fb:nw</title>
<path fill="none" stroke="black" d="M70.2674,-219.912C83.1431,-221.196 98.0829,-220.595 109.778,-214.142"/>
<polygon fill="black" stroke="black" points="112.083,-216.788 118,-208 107.894,-211.18 112.083,-216.788"/>
</g>
<!-- esp -->
<g id="node4" class="node"><title>esp</title>
<text text-anchor="middle" x="41" y="-128.3" font-family="Times New Roman,serif" font-size="14.00">esp</text>
</g>
<!-- esp&#45;&gt;node0 -->
<g id="edge4" class="edge"><title>esp&#45;&gt;node0:f1:sw</title>
<path fill="none" stroke="black" d="M70.2576,-126.566C83.1304,-125.481 98.0695,-126.287 109.771,-132.822"/>
<polygon fill="black" stroke="black" points="107.902,-135.795 118,-139 112.104,-130.197 107.902,-135.795"/>
</g>
</g>
</svg>
