<?xml version="1.0" encoding="UTF-8" standalone="no"?>
<!DOCTYPE svg PUBLIC "-//W3C//DTD SVG 1.1//EN"
 "http://www.w3.org/Graphics/SVG/1.1/DTD/svg11.dtd">
<!-- Generated by graphviz version 2.36.0 (20140111.2315)
 -->
<!-- Title: G Pages: 1 -->
<svg width="362pt" height="284pt"
 viewBox="0.00 0.00 362.00 284.00" xmlns="http://www.w3.org/2000/svg" xmlns:xlink="http://www.w3.org/1999/xlink">
<g id="graph0" class="graph" transform="scale(1 1) rotate(0) translate(4 280)">
<title>G</title>
<polygon fill="white" stroke="none" points="-4,4 -4,-280 358,-280 358,4 -4,4"/>
<!-- node0 -->
<g id="node1" class="node"><title>node0</title>
<polygon fill="none" stroke="black" points="122,-0 122,-276 220,-276 220,-0 122,-0"/>
<text text-anchor="middle" x="171" y="-260.8" font-family="Times New Roman,serif" font-size="14.00"> </text>
<polyline fill="none" stroke="black" points="122,-253 220,-253 "/>
<text text-anchor="middle" x="171" y="-237.8" font-family="Times New Roman,serif" font-size="14.00"> </text>
<polyline fill="none" stroke="black" points="122,-230 220,-230 "/>
<text text-anchor="middle" x="171" y="-214.8" font-family="Times New Roman,serif" font-size="14.00">var: string</text>
<polyline fill="none" stroke="black" points="122,-207 220,-207 "/>
<text text-anchor="middle" x="171" y="-191.8" font-family="Times New Roman,serif" font-size="14.00">arg2=string</text>
<polyline fill="none" stroke="black" points="122,-184 220,-184 "/>
<text text-anchor="middle" x="171" y="-168.8" font-family="Times New Roman,serif" font-size="14.00">arg1=&quot;%s&quot;</text>
<polyline fill="none" stroke="black" points="122,-161 220,-161 "/>
<text text-anchor="middle" x="171" y="-145.8" font-family="Times New Roman,serif" font-size="14.00">返回地址</text>
<polyline fill="none" stroke="black" points="122,-138 220,-138 "/>
<text text-anchor="middle" x="171" y="-122.8" font-family="Times New Roman,serif" font-size="14.00">old ebp</text>
<polyline fill="none" stroke="black" points="122,-115 220,-115 "/>
<text text-anchor="middle" x="171" y="-99.8" font-family="Times New Roman,serif" font-size="14.00">printf局部变量</text>
<polyline fill="none" stroke="black" points="122,-92 220,-92 "/>
<text text-anchor="middle" x="171" y="-76.8" font-family="Times New Roman,serif" font-size="14.00">...</text>
<polyline fill="none" stroke="black" points="122,-69 220,-69 "/>
<text text-anchor="middle" x="171" y="-53.8" font-family="Times New Roman,serif" font-size="14.00">printf局部变量</text>
<polyline fill="none" stroke="black" points="122,-46 220,-46 "/>
<text text-anchor="middle" x="171" y="-30.8" font-family="Times New Roman,serif" font-size="14.00">..</text>
<polyline fill="none" stroke="black" points="122,-23 220,-23 "/>
<text text-anchor="middle" x="171" y="-7.8" font-family="Times New Roman,serif" font-size="14.00"> </text>
</g>
<!-- node0&#45;&gt;node0 -->
<g id="edge1" class="edge"><title>node0:f1:e&#45;&gt;node0:f2:ne</title>
<path fill="none" stroke="black" d="M220,-219C241.333,-228 284,-228 284,-190 284,-157.195 252.202,-152.71 229.783,-157.887"/>
<polygon fill="black" stroke="black" points="228.468,-154.633 220,-161 230.59,-161.303 228.468,-154.633"/>
</g>
<!-- addr1 -->
<g id="node6" class="node"><title>addr1</title>
<text text-anchor="middle" x="305" y="-226.3" font-family="Times New Roman,serif" font-size="14.00">0xCFFFFFFB</text>
</g>
<!-- node0&#45;&gt;addr1 -->
<g id="edge8" class="edge"><title>node0:f1:ne&#45;&gt;addr1</title>
<path fill="none" stroke="black" d="M228.18,-236.101C238.259,-241.606 250.683,-242.458 262.537,-241.258"/>
<polygon fill="black" stroke="black" points="230.109,-233.173 220,-230 225.923,-238.784 230.109,-233.173"/>
</g>
<!-- addr2 -->
<g id="node7" class="node"><title>addr2</title>
<text text-anchor="middle" x="305" y="-157.3" font-family="Times New Roman,serif" font-size="14.00">0xCFFFFFF0</text>
</g>
<!-- node0&#45;&gt;addr2 -->
<g id="edge9" class="edge"><title>node0:f1_2:se&#45;&gt;addr2</title>
<path fill="none" stroke="black" d="M228.18,-154.899C238.259,-149.394 250.683,-148.542 262.537,-149.742"/>
<polygon fill="black" stroke="black" points="225.923,-152.216 220,-161 230.109,-157.827 225.923,-152.216"/>
</g>
<!-- stack_main -->
<g id="node2" class="node"><title>stack_main</title>
<text text-anchor="middle" x="43" y="-210.3" font-family="Times New Roman,serif" font-size="14.00">main函数栈</text>
</g>
<!-- stack_main&#45;&gt;node0 -->
<g id="edge2" class="edge"><title>stack_main&#45;&gt;node0:fb</title>
<path fill="none" stroke="black" d="M53.29,-225.319C65.1643,-238.583 87.1777,-259.353 111.989,-264.039"/>
<polygon fill="black" stroke="black" points="111.711,-267.529 122,-265 112.38,-260.561 111.711,-267.529"/>
</g>
<!-- stack_main&#45;&gt;node0 -->
<g id="edge3" class="edge"><title>stack_main&#45;&gt;node0:f5</title>
<path fill="none" stroke="black" d="M51.3049,-202.53C60.0765,-188.529 74.9826,-163.996 86,-142 102.651,-108.757 84.9939,-65.9573 112.073,-58.2246"/>
<polygon fill="black" stroke="black" points="112.504,-61.698 122,-57 111.647,-54.7507 112.504,-61.698"/>
</g>
<!-- stack_p -->
<g id="node3" class="node"><title>stack_p</title>
<text text-anchor="middle" x="43" y="-77.3" font-family="Times New Roman,serif" font-size="14.00">printf函数栈</text>
</g>
<!-- stack_p&#45;&gt;node0 -->
<g id="edge4" class="edge"><title>stack_p&#45;&gt;node0:f4</title>
<path fill="none" stroke="black" d="M70.1991,-92.2578C82.3056,-96.6556 97.2323,-100.999 111.913,-102.472"/>
<polygon fill="black" stroke="black" points="111.831,-105.973 122,-103 112.196,-98.9824 111.831,-105.973"/>
</g>
<!-- stack_p&#45;&gt;node0 -->
<g id="edge5" class="edge"><title>stack_p&#45;&gt;node0:f5</title>
<path fill="none" stroke="black" d="M67.6658,-69.7028C80.1127,-64.5964 96.0209,-59.3198 111.738,-57.5884"/>
<polygon fill="black" stroke="black" points="112.217,-61.0668 122,-57 111.816,-54.0783 112.217,-61.0668"/>
</g>
<!-- ebp -->
<g id="node4" class="node"><title>ebp</title>
<text text-anchor="middle" x="43" y="-118.3" font-family="Times New Roman,serif" font-size="14.00">ebp</text>
</g>
<!-- ebp&#45;&gt;node0 -->
<g id="edge6" class="edge"><title>ebp&#45;&gt;node0:f4:nw</title>
<path fill="none" stroke="black" d="M72.2403,-127.596C85.7012,-128.85 101.502,-128.147 113.773,-121.212"/>
<polygon fill="black" stroke="black" points="116.128,-123.819 122,-115 111.91,-118.233 116.128,-123.819"/>
</g>
<!-- esp -->
<g id="node5" class="node"><title>esp</title>
<text text-anchor="middle" x="43" y="-36.3" font-family="Times New Roman,serif" font-size="14.00">esp</text>
</g>
<!-- esp&#45;&gt;node0 -->
<g id="edge7" class="edge"><title>esp&#45;&gt;node0:f5:sw</title>
<path fill="none" stroke="black" d="M72.2498,-33.9367C85.7136,-32.4781 101.515,-32.9696 113.779,-39.8226"/>
<polygon fill="black" stroke="black" points="111.903,-42.7908 122,-46 116.108,-37.1946 111.903,-42.7908"/>
</g>
</g>
</svg>
