<?xml version="1.0" encoding="UTF-8" standalone="no"?>
<!DOCTYPE svg PUBLIC "-//W3C//DTD SVG 1.1//EN"
 "http://www.w3.org/Graphics/SVG/1.1/DTD/svg11.dtd">
<!-- Generated by graphviz version 2.36.0 (20140111.2315)
 -->
<!-- Title: G Pages: 1 -->
<svg width="332pt" height="325pt"
 viewBox="0.00 0.00 332.00 325.00" xmlns="http://www.w3.org/2000/svg" xmlns:xlink="http://www.w3.org/1999/xlink">
<g id="graph0" class="graph" transform="scale(1 1) rotate(0) translate(4 321)">
<title>G</title>
<polygon fill="white" stroke="none" points="-4,4 -4,-321 328,-321 328,4 -4,4"/>
<!-- node0 -->
<g id="node1" class="node"><title>node0</title>
<polygon fill="none" stroke="black" points="118.5,-0.5 118.5,-299.5 189.5,-299.5 189.5,-0.5 118.5,-0.5"/>
<text text-anchor="middle" x="154" y="-284.3" font-family="Times New Roman,serif" font-size="14.00"> </text>
<polyline fill="none" stroke="black" points="118.5,-276.5 189.5,-276.5 "/>
<text text-anchor="middle" x="154" y="-261.3" font-family="Times New Roman,serif" font-size="14.00"> </text>
<polyline fill="none" stroke="black" points="118.5,-253.5 189.5,-253.5 "/>
<text text-anchor="middle" x="154" y="-238.3" font-family="Times New Roman,serif" font-size="14.00">var: string</text>
<polyline fill="none" stroke="black" points="118.5,-230.5 189.5,-230.5 "/>
<text text-anchor="middle" x="154" y="-215.3" font-family="Times New Roman,serif" font-size="14.00">返回地址</text>
<polyline fill="none" stroke="black" points="118.5,-207.5 189.5,-207.5 "/>
<text text-anchor="middle" x="154" y="-192.3" font-family="Times New Roman,serif" font-size="14.00">old ebp</text>
<polyline fill="none" stroke="black" points="118.5,-184.5 189.5,-184.5 "/>
<text text-anchor="middle" x="154" y="-169.3" font-family="Times New Roman,serif" font-size="14.00">h</text>
<polyline fill="none" stroke="black" points="118.5,-161.5 189.5,-161.5 "/>
<text text-anchor="middle" x="154" y="-146.3" font-family="Times New Roman,serif" font-size="14.00">e</text>
<polyline fill="none" stroke="black" points="118.5,-138.5 189.5,-138.5 "/>
<text text-anchor="middle" x="154" y="-123.3" font-family="Times New Roman,serif" font-size="14.00">l</text>
<polyline fill="none" stroke="black" points="118.5,-115.5 189.5,-115.5 "/>
<text text-anchor="middle" x="154" y="-100.3" font-family="Times New Roman,serif" font-size="14.00">l</text>
<polyline fill="none" stroke="black" points="118.5,-92.5 189.5,-92.5 "/>
<text text-anchor="middle" x="154" y="-77.3" font-family="Times New Roman,serif" font-size="14.00">...</text>
<polyline fill="none" stroke="black" points="118.5,-69.5 189.5,-69.5 "/>
<text text-anchor="middle" x="154" y="-54.3" font-family="Times New Roman,serif" font-size="14.00">d</text>
<polyline fill="none" stroke="black" points="118.5,-46.5 189.5,-46.5 "/>
<text text-anchor="middle" x="154" y="-31.3" font-family="Times New Roman,serif" font-size="14.00">\0</text>
<polyline fill="none" stroke="black" points="118.5,-23.5 189.5,-23.5 "/>
<text text-anchor="middle" x="154" y="-8.3" font-family="Times New Roman,serif" font-size="14.00"> </text>
</g>
<!-- node0&#45;&gt;node0 -->
<g id="edge1" class="edge"><title>node0:f1:e&#45;&gt;node0:f4:ne</title>
<path fill="none" stroke="black" d="M190,-242C208.167,-251 245.5,-251 245.5,-213.5 245.5,-181.713 218.675,-176.87 199.437,-181.614"/>
<polygon fill="black" stroke="black" points="198.231,-178.329 190,-185 200.595,-184.917 198.231,-178.329"/>
</g>
<!-- addr1 -->
<g id="node5" class="node"><title>addr1</title>
<text text-anchor="middle" x="275" y="-250.3" font-family="Times New Roman,serif" font-size="14.00">0xCFFFFFFB</text>
</g>
<!-- node0&#45;&gt;addr1 -->
<g id="edge6" class="edge"><title>node0:f1:ne&#45;&gt;addr1</title>
<path fill="none" stroke="black" d="M198.18,-260.101C208.259,-265.606 220.683,-266.458 232.537,-265.258"/>
<polygon fill="black" stroke="black" points="200.109,-257.173 190,-254 195.923,-262.784 200.109,-257.173"/>
</g>
<!-- addr2 -->
<g id="node6" class="node"><title>addr2</title>
<text text-anchor="middle" x="275" y="-181.3" font-family="Times New Roman,serif" font-size="14.00">0xCFFFFFF0</text>
</g>
<!-- node0&#45;&gt;addr2 -->
<g id="edge7" class="edge"><title>node0:f3:se&#45;&gt;addr2</title>
<path fill="none" stroke="black" d="M198.18,-178.899C208.259,-173.394 220.683,-172.542 232.537,-173.742"/>
<polygon fill="black" stroke="black" points="195.923,-176.216 190,-185 200.109,-181.827 195.923,-176.216"/>
</g>
<!-- stack_main -->
<g id="node2" class="node"><title>stack_main</title>
<text text-anchor="middle" x="41" y="-261.3" font-family="Times New Roman,serif" font-size="14.00">main函数栈</text>
</g>
<!-- stack_main&#45;&gt;node0 -->
<g id="edge2" class="edge"><title>stack_main&#45;&gt;node0:fb</title>
<path fill="none" stroke="black" d="M66.4249,-276.365C78.314,-281.073 93.1913,-285.812 107.891,-287.423"/>
<polygon fill="black" stroke="black" points="107.817,-290.924 118,-288 108.216,-283.936 107.817,-290.924"/>
</g>
<!-- stack_main&#45;&gt;node0 -->
<g id="edge3" class="edge"><title>stack_main&#45;&gt;node0:f1</title>
<path fill="none" stroke="black" d="M66.4249,-253.635C78.314,-248.927 93.1913,-244.188 107.891,-242.577"/>
<polygon fill="black" stroke="black" points="108.216,-246.064 118,-242 107.817,-239.076 108.216,-246.064"/>
</g>
<!-- ebp -->
<g id="node3" class="node"><title>ebp</title>
<text text-anchor="middle" x="41" y="-302.3" font-family="Times New Roman,serif" font-size="14.00">ebp</text>
</g>
<!-- ebp&#45;&gt;node0 -->
<g id="edge5" class="edge"><title>ebp&#45;&gt;node0:fb:nw</title>
<path fill="none" stroke="black" d="M70.2674,-311.912C83.1431,-313.196 98.0829,-312.595 109.778,-306.142"/>
<polygon fill="black" stroke="black" points="112.083,-308.788 118,-300 107.894,-303.18 112.083,-308.788"/>
</g>
<!-- esp -->
<g id="node4" class="node"><title>esp</title>
<text text-anchor="middle" x="41" y="-220.3" font-family="Times New Roman,serif" font-size="14.00">esp</text>
</g>
<!-- esp&#45;&gt;node0 -->
<g id="edge4" class="edge"><title>esp&#45;&gt;node0:f1:sw</title>
<path fill="none" stroke="black" d="M70.2576,-218.566C83.1304,-217.481 98.0695,-218.287 109.771,-224.822"/>
<polygon fill="black" stroke="black" points="107.902,-227.795 118,-231 112.104,-222.197 107.902,-227.795"/>
</g>
</g>
</svg>
