<?xml version="1.0" encoding="UTF-8" standalone="no"?>
<!DOCTYPE svg PUBLIC "-//W3C//DTD SVG 1.1//EN"
 "http://www.w3.org/Graphics/SVG/1.1/DTD/svg11.dtd">
<!-- Generated by graphviz version 2.36.0 (20140111.2315)
 -->
<!-- Title: G Pages: 1 -->
<svg width="376pt" height="227pt"
 viewBox="0.00 0.00 376.00 227.00" xmlns="http://www.w3.org/2000/svg" xmlns:xlink="http://www.w3.org/1999/xlink">
<g id="graph0" class="graph" transform="scale(1 1) rotate(0) translate(4 223)">
<title>G</title>
<polygon fill="white" stroke="none" points="-4,4 -4,-223 372,-223 372,4 -4,4"/>
<!-- node0 -->
<g id="node1" class="node"><title>node0</title>
<polygon fill="none" stroke="black" points="118,-0.5 118,-207.5 234,-207.5 234,-0.5 118,-0.5"/>
<text text-anchor="middle" x="176" y="-192.3" font-family="Times New Roman,serif" font-size="14.00"> </text>
<polyline fill="none" stroke="black" points="118,-184.5 234,-184.5 "/>
<text text-anchor="middle" x="176" y="-169.3" font-family="Times New Roman,serif" font-size="14.00"> </text>
<polyline fill="none" stroke="black" points="118,-161.5 234,-161.5 "/>
<text text-anchor="middle" x="176" y="-146.3" font-family="Times New Roman,serif" font-size="14.00">var: string=NULL</text>
<polyline fill="none" stroke="black" points="118,-138.5 234,-138.5 "/>
<text text-anchor="middle" x="176" y="-123.3" font-family="Times New Roman,serif" font-size="14.00">返回地址</text>
<polyline fill="none" stroke="black" points="118,-115.5 234,-115.5 "/>
<text text-anchor="middle" x="176" y="-100.3" font-family="Times New Roman,serif" font-size="14.00">old ebp</text>
<polyline fill="none" stroke="black" points="118,-92.5 234,-92.5 "/>
<text text-anchor="middle" x="176" y="-77.3" font-family="Times New Roman,serif" font-size="14.00"> </text>
<polyline fill="none" stroke="black" points="118,-69.5 234,-69.5 "/>
<text text-anchor="middle" x="176" y="-54.3" font-family="Times New Roman,serif" font-size="14.00"> </text>
<polyline fill="none" stroke="black" points="118,-46.5 234,-46.5 "/>
<text text-anchor="middle" x="176" y="-31.3" font-family="Times New Roman,serif" font-size="14.00"> </text>
<polyline fill="none" stroke="black" points="118,-23.5 234,-23.5 "/>
<text text-anchor="middle" x="176" y="-8.3" font-family="Times New Roman,serif" font-size="14.00"> </text>
</g>
<!-- node0&#45;&gt;node0 -->
<g id="edge5" class="edge"><title>node0:f3:e&#45;&gt;node0:fb:e</title>
<path fill="none" stroke="black" d="M234,-104C256.333,-95 301,-95 301,-150 301,-197.91 267.107,-204.086 243.607,-198.933"/>
<polygon fill="black" stroke="black" points="244.586,-195.573 234,-196 242.542,-202.268 244.586,-195.573"/>
</g>
<!-- addr1 -->
<g id="node5" class="node"><title>addr1</title>
<text text-anchor="middle" x="319" y="-158.3" font-family="Times New Roman,serif" font-size="14.00">0xCFFFFFFB</text>
</g>
<!-- node0&#45;&gt;addr1 -->
<g id="edge6" class="edge"><title>node0:f1:ne&#45;&gt;addr1</title>
<path fill="none" stroke="black" d="M242.18,-168.101C252.259,-173.606 264.683,-174.458 276.537,-173.258"/>
<polygon fill="black" stroke="black" points="244.109,-165.173 234,-162 239.923,-170.784 244.109,-165.173"/>
</g>
<!-- addr2 -->
<g id="node6" class="node"><title>addr2</title>
<text text-anchor="middle" x="319" y="-112.3" font-family="Times New Roman,serif" font-size="14.00">0xCFFFFFF4</text>
</g>
<!-- node0&#45;&gt;addr2 -->
<g id="edge7" class="edge"><title>node0:f2:se&#45;&gt;addr2</title>
<path fill="none" stroke="black" d="M242.18,-109.899C252.259,-104.394 264.683,-103.542 276.537,-104.742"/>
<polygon fill="black" stroke="black" points="239.923,-107.216 234,-116 244.109,-112.827 239.923,-107.216"/>
</g>
<!-- stack_bottom -->
<g id="node2" class="node"><title>stack_bottom</title>
<text text-anchor="middle" x="41" y="-146.3" font-family="Times New Roman,serif" font-size="14.00">main函数栈</text>
</g>
<!-- stack_bottom&#45;&gt;node0 -->
<g id="edge1" class="edge"><title>stack_bottom&#45;&gt;node0:fb</title>
<path fill="none" stroke="black" d="M52.6096,-161.608C64.5209,-173.478 85.1697,-190.765 107.83,-195.025"/>
<polygon fill="black" stroke="black" points="107.712,-198.529 118,-196 108.38,-191.561 107.712,-198.529"/>
</g>
<!-- stack_bottom&#45;&gt;node0 -->
<g id="edge2" class="edge"><title>stack_bottom&#45;&gt;node0:f3</title>
<path fill="none" stroke="black" d="M52.6096,-138.392C64.5209,-126.522 85.1697,-109.235 107.83,-104.975"/>
<polygon fill="black" stroke="black" points="108.38,-108.439 118,-104 107.712,-101.471 108.38,-108.439"/>
</g>
<!-- ebp -->
<g id="node3" class="node"><title>ebp</title>
<text text-anchor="middle" x="41" y="-204.3" font-family="Times New Roman,serif" font-size="14.00">ebp</text>
</g>
<!-- ebp&#45;&gt;node0 -->
<g id="edge4" class="edge"><title>ebp&#45;&gt;node0:fb:nw</title>
<path fill="none" stroke="black" d="M70.2949,-216.815C83.1783,-219.305 98.12,-219.931 109.796,-213.945"/>
<polygon fill="black" stroke="black" points="111.956,-216.702 118,-208 107.849,-211.034 111.956,-216.702"/>
</g>
<!-- esp -->
<g id="node4" class="node"><title>esp</title>
<text text-anchor="middle" x="41" y="-88.3" font-family="Times New Roman,serif" font-size="14.00">esp</text>
</g>
<!-- esp&#45;&gt;node0 -->
<g id="edge3" class="edge"><title>esp&#45;&gt;node0:f3:sw</title>
<path fill="none" stroke="black" d="M70.2949,-83.1854C83.1783,-80.6954 98.12,-80.0693 109.796,-86.0551"/>
<polygon fill="black" stroke="black" points="107.849,-88.9663 118,-92 111.956,-83.2981 107.849,-88.9663"/>
</g>
</g>
</svg>
